<?xml version="1.0" encoding="UTF-8"?>
<svg xmlns="http://www.w3.org/2000/svg" viewBox="-1400 -1095.6693813106963 12367.541522345082 9695.669381310696" width="12367.541522345082" height="9695.669381310696">
  <rect x="-1400" y="-1095.6693813106963" width="12367.541522345082" height="9695.669381310696" fill="white"/>
  <defs>
    <pattern id="wall-hatch" patternUnits="userSpaceOnUse" width="60" height="60" patternTransform="rotate(45)">
      <line x1="0" y1="0" x2="0" y2="60" stroke="#666" stroke-width="9"/>
    </pattern>
  </defs>
  <g transform="scale(1,-1) translate(0,-7504.330618689303)">
    <g id="Curved Villa">
      <g id="Ground Floor">
        <path d="M -19.801980198020715 -98.01980198019803 A 25350 25350 0 0 1 967.9569806533533 -277.2876894428558 L 999.7679709440566 -79.83374317506208 A 25150 25150 0 0 0 19.801980198018896 98.01980198019803 Z" fill="url(#wall-hatch)" stroke="black" stroke-width="50" stroke-linejoin="miter"/>
        <path d="M 2460.9647964743012 -472.5256513945743 A 25350 25350 0 0 1 3461.606540793448 -553.277368053936 L 3473.7437672960637 -353.6459884243192 A 25150 25150 0 0 0 2480.9966323995536 -273.5313661764711 Z" fill="url(#wall-hatch)" stroke="black" stroke-width="50" stroke-linejoin="miter"/>
        <path d="M 5468.554813537867 -595.6693813106962 A 25350 25350 0 0 1 6972.526152863934 -523.1406947428659 L 6956.963816352188 -323.7470797942042 A 25150 25150 0 0 0 5464.858128618436 -395.7035479275743 Z" fill="url(#wall-hatch)" stroke="black" stroke-width="50" stroke-linejoin="miter"/>
        <path d="M 8469.538364610748 -361.44765911543635 A 25350 25350 0 0 1 10019.801980198019 -98.01980198019803 L 9980.198019801981 98.01980198019803 A 25150 25150 0 0 0 8442.165280866284 -163.32972886600493 Z" fill="url(#wall-hatch)" stroke="black" stroke-width="50" stroke-linejoin="miter"/>
        <polygon points="9900,0 9900,4000 10100,4000 10100,0" fill="url(#wall-hatch)" stroke="black" stroke-width="50" stroke-linejoin="miter"/>
        <polygon points="10000,3925 6000,3925 6000,4075 10000,4075" fill="url(#wall-hatch)" stroke="black" stroke-width="50" stroke-linejoin="miter"/>
        <polygon points="5100,3925 0,3925 0,4075 5100,4075" fill="url(#wall-hatch)" stroke="black" stroke-width="50" stroke-linejoin="miter"/>
        <polygon points="100,4000 100,3000 -100,3000 -100,4000" fill="url(#wall-hatch)" stroke="black" stroke-width="50" stroke-linejoin="miter"/>
        <polygon points="100,1800 100,0 -100,0 -100,1800" fill="url(#wall-hatch)" stroke="black" stroke-width="50" stroke-linejoin="miter"/>
        <path d="M 6000 4900 A 900 900 0 0 1 5100 4000" fill="none" stroke="black" stroke-width="25"/>
        <line x1="6000" y1="4000" x2="5100" y2="4000" stroke="black" stroke-width="25"/>
        <line x1="6000" y1="4000" x2="6000" y2="4900" stroke="black" stroke-width="25"/>
        <line x1="3467.675154044756" y1="-423.46167823912765" x2="5466.7064710781515" y2="-465.6864646191352" stroke="black" stroke-width="25"/>
        <line x1="3467.675154044756" y1="-483.46167823912765" x2="5466.7064710781515" y2="-525.6864646191352" stroke="black" stroke-width="25"/>
        <line x1="4307.226493840824" y1="-471.19520531090285" x2="4627.155131282083" y2="-477.95293754736" stroke="black" stroke-width="25"/>
        <line x1="983.862475798705" y1="-228.56071630895894" x2="2470.9807144369274" y2="-423.0285087855227" stroke="black" stroke-width="25"/>
        <line x1="983.862475798705" y1="-128.56071630895894" x2="2470.9807144369274" y2="-323.0285087855227" stroke="black" stroke-width="25"/>
        <line x1="983.862475798705" y1="-78.56071630895894" x2="983.862475798705" y2="-278.56071630895894" stroke="black" stroke-width="25"/>
        <line x1="2470.9807144369274" y1="-273.0285087855227" x2="2470.9807144369274" y2="-473.0285087855227" stroke="black" stroke-width="25"/>
        <line x1="6964.744984608061" y1="-473.44388726853504" x2="8455.851822738516" y2="-312.38869399072064" stroke="black" stroke-width="25"/>
        <line x1="6964.744984608061" y1="-373.44388726853504" x2="8455.851822738516" y2="-212.38869399072064" stroke="black" stroke-width="25"/>
        <line x1="6964.744984608061" y1="-323.44388726853504" x2="6964.744984608061" y2="-523.443887268535" stroke="black" stroke-width="25"/>
        <line x1="8455.851822738516" y1="-162.38869399072064" x2="8455.851822738516" y2="-362.38869399072064" stroke="black" stroke-width="25"/>
        <line x1="-50" y1="3000" x2="-50" y2="1800" stroke="black" stroke-width="25"/>
        <line x1="50" y1="3000" x2="50" y2="1800" stroke="black" stroke-width="25"/>
        <line x1="100" y1="3000" x2="-100" y2="3000" stroke="black" stroke-width="25"/>
        <line x1="100" y1="1800" x2="-100" y2="1800" stroke="black" stroke-width="25"/>
        <polygon points="9900,4000 9900,5200 10100,5200 10100,4000" fill="url(#wall-hatch)" stroke="black" stroke-width="50" stroke-linejoin="miter"/>
        <polygon points="10000,5125 9200,5125 9200,5275 10000,5275" fill="url(#wall-hatch)" stroke="black" stroke-width="50" stroke-linejoin="miter"/>
        <polygon points="7700,5125 6500,5125 6500,5275 7700,5275" fill="url(#wall-hatch)" stroke="black" stroke-width="50" stroke-linejoin="miter"/>
        <polygon points="6500,5125 5800,5125 5800,5275 6500,5275" fill="url(#wall-hatch)" stroke="black" stroke-width="50" stroke-linejoin="miter"/>
        <polygon points="5100,5125 4000,5125 4000,5275 5100,5275" fill="url(#wall-hatch)" stroke="black" stroke-width="50" stroke-linejoin="miter"/>
        <polygon points="4000,5125 2800,5125 2800,5275 4000,5275" fill="url(#wall-hatch)" stroke="black" stroke-width="50" stroke-linejoin="miter"/>
        <polygon points="2000,5125 0,5125 0,5275 2000,5275" fill="url(#wall-hatch)" stroke="black" stroke-width="50" stroke-linejoin="miter"/>
        <polygon points="100,5200 100,5000 -100,5000 -100,5200" fill="url(#wall-hatch)" stroke="black" stroke-width="50" stroke-linejoin="miter"/>
        <polygon points="100,4100 100,4000 -100,4000 -100,4100" fill="url(#wall-hatch)" stroke="black" stroke-width="50" stroke-linejoin="miter"/>
        <path d="M 5.510910596163089e-14 4100 A 900 900 0 0 1 900 5000" fill="none" stroke="black" stroke-width="25"/>
        <line x1="0" y1="5000" x2="0" y2="4100" stroke="black" stroke-width="25"/>
        <line x1="0" y1="5000" x2="900" y2="5000" stroke="black" stroke-width="25"/>
        <path d="M 2800 6000 A 800 800 0 0 1 2000 5200" fill="none" stroke="black" stroke-width="25"/>
        <line x1="2800" y1="5200" x2="2000" y2="5200" stroke="black" stroke-width="25"/>
        <line x1="2800" y1="5200" x2="2800" y2="6000" stroke="black" stroke-width="25"/>
        <path d="M 5100 5200 A 700 700 0 0 1 5800 4500" fill="none" stroke="black" stroke-width="25"/>
        <line x1="5800" y1="5200" x2="5100" y2="5200" stroke="black" stroke-width="25"/>
        <line x1="5800" y1="5200" x2="5800" y2="4500" stroke="black" stroke-width="25"/>
        <polygon points="3925,5200 3925,8000 4075,8000 4075,5200" fill="url(#wall-hatch)" stroke="black" stroke-width="50" stroke-linejoin="miter"/>
        <polygon points="4000,7900 3000,7900 3000,8100 4000,8100" fill="url(#wall-hatch)" stroke="black" stroke-width="50" stroke-linejoin="miter"/>
        <polygon points="1500,7900 0,7900 0,8100 1500,8100" fill="url(#wall-hatch)" stroke="black" stroke-width="50" stroke-linejoin="miter"/>
        <polygon points="100,8000 100,5200 -100,5200 -100,8000" fill="url(#wall-hatch)" stroke="black" stroke-width="50" stroke-linejoin="miter"/>
        <line x1="3000" y1="8050" x2="1500" y2="8050" stroke="black" stroke-width="25"/>
        <line x1="3000" y1="7950" x2="1500" y2="7950" stroke="black" stroke-width="25"/>
        <line x1="3000" y1="7900" x2="3000" y2="8100" stroke="black" stroke-width="25"/>
        <line x1="1500" y1="7900" x2="1500" y2="8100" stroke="black" stroke-width="25"/>
        <polygon points="6425,5200 6425,8000 6575,8000 6575,5200" fill="url(#wall-hatch)" stroke="black" stroke-width="50" stroke-linejoin="miter"/>
        <polygon points="6500,7900 6000,7900 6000,8100 6500,8100" fill="url(#wall-hatch)" stroke="black" stroke-width="50" stroke-linejoin="miter"/>
        <polygon points="5200,7900 4000,7900 4000,8100 5200,8100" fill="url(#wall-hatch)" stroke="black" stroke-width="50" stroke-linejoin="miter"/>
        <line x1="6000" y1="8050" x2="5200" y2="8050" stroke="black" stroke-width="25"/>
        <line x1="6000" y1="7950" x2="5200" y2="7950" stroke="black" stroke-width="25"/>
        <line x1="6000" y1="7900" x2="6000" y2="8100" stroke="black" stroke-width="25"/>
        <line x1="5200" y1="7900" x2="5200" y2="8100" stroke="black" stroke-width="25"/>
        <path d="M 10083.48623853211 5144.954128440367 A 2643.3333333333335 2643.3333333333335 0 0 1 10325.190136453984 5604.036180872127 L 10139.929848702108 5679.392838057086 A 2443.3333333333335 2443.3333333333335 0 0 0 9916.51376146789 5255.045871559633 Z" fill="url(#wall-hatch)" stroke="black" stroke-width="50" stroke-linejoin="miter"/>
        <path d="M 10465.478934757077 7134.099383725252 A 2643.3333333333335 2643.3333333333335 0 0 1 10083.48623853211 8055.045871559633 L 9916.51376146789 7944.954128440367 A 2443.3333333333335 2443.3333333333335 0 0 0 10269.604109933087 7093.688333254237 Z" fill="url(#wall-hatch)" stroke="black" stroke-width="50" stroke-linejoin="miter"/>
        <polygon points="10000,7900 9500,7900 9500,8100 10000,8100" fill="url(#wall-hatch)" stroke="black" stroke-width="50" stroke-linejoin="miter"/>
        <polygon points="8300,7900 6500,7900 6500,8100 8300,8100" fill="url(#wall-hatch)" stroke="black" stroke-width="50" stroke-linejoin="miter"/>
        <line x1="10282.559992578046" y1="5641.714509464607" x2="10417.541522345082" y2="7113.893858489744" stroke="black" stroke-width="25"/>
        <line x1="10182.559992578046" y1="5641.714509464607" x2="10317.541522345082" y2="7113.893858489744" stroke="black" stroke-width="25"/>
        <line x1="10132.559992578046" y1="5641.714509464607" x2="10332.559992578046" y2="5641.714509464607" stroke="black" stroke-width="25"/>
        <line x1="10267.541522345082" y1="7113.893858489744" x2="10467.541522345082" y2="7113.893858489744" stroke="black" stroke-width="25"/>
        <line x1="9500" y1="8050" x2="8300" y2="8050" stroke="black" stroke-width="25"/>
        <line x1="9500" y1="7950" x2="8300" y2="7950" stroke="black" stroke-width="25"/>
        <line x1="9500" y1="7900" x2="9500" y2="8100" stroke="black" stroke-width="25"/>
        <line x1="8300" y1="7900" x2="8300" y2="8100" stroke="black" stroke-width="25"/>
        <g transform="translate(4999.999999999999,1830.6082689654634) scale(1,-1)">
          <text x="0" y="0" font-family="Arial, sans-serif" font-size="150" text-anchor="middle" dominant-baseline="central" fill="black">Living Room</text>
        </g>
        <g transform="translate(5000,4600) scale(1,-1)">
          <text x="0" y="0" font-family="Arial, sans-serif" font-size="150" text-anchor="middle" dominant-baseline="central" fill="black">Hallway</text>
        </g>
        <g transform="translate(2000,6600) scale(1,-1)">
          <text x="0" y="0" font-family="Arial, sans-serif" font-size="150" text-anchor="middle" dominant-baseline="central" fill="black">Bedroom</text>
        </g>
        <g transform="translate(5250,6600) scale(1,-1)">
          <text x="0" y="0" font-family="Arial, sans-serif" font-size="150" text-anchor="middle" dominant-baseline="central" fill="black">Bathroom</text>
        </g>
        <g transform="translate(8394.355090933268,6600.000000000006) scale(1,-1)">
          <text x="0" y="0" font-family="Arial, sans-serif" font-size="150" text-anchor="middle" dominant-baseline="central" fill="black">Sunroom</text>
        </g>
        <line x1="0" y1="500" x2="10000" y2="500" stroke="black" stroke-width="13"/>
        <line x1="0" y1="50" x2="0" y2="600" stroke="black" stroke-width="13"/>
        <line x1="10000" y1="50" x2="10000" y2="600" stroke="black" stroke-width="13"/>
        <line x1="-40" y1="460" x2="40" y2="540" stroke="black" stroke-width="13"/>
        <line x1="9960" y1="460" x2="10040" y2="540" stroke="black" stroke-width="13"/>
        <g transform="translate(5000,560) scale(1,-1)">
          <text x="0" y="0" font-family="Arial, sans-serif" font-size="120" text-anchor="middle" dominant-baseline="central" fill="black">10</text>
        </g>
        <line x1="9500" y1="0" x2="9500" y2="4000" stroke="black" stroke-width="13"/>
        <line x1="9950" y1="0" x2="9400" y2="0" stroke="black" stroke-width="13"/>
        <line x1="9950" y1="4000" x2="9400" y2="4000" stroke="black" stroke-width="13"/>
        <line x1="9540" y1="-40" x2="9460" y2="40" stroke="black" stroke-width="13"/>
        <line x1="9540" y1="3960" x2="9460" y2="4040" stroke="black" stroke-width="13"/>
        <g transform="translate(9440,2000) scale(1,-1)">
          <text x="0" y="0" font-family="Arial, sans-serif" font-size="120" text-anchor="middle" dominant-baseline="central" fill="black">4</text>
        </g>
        <line x1="10000" y1="3950" x2="10000" y2="3400" stroke="black" stroke-width="13"/>
        <line x1="6000" y1="3950" x2="6000" y2="3400" stroke="black" stroke-width="13"/>
        <line x1="5100" y1="3950" x2="5100" y2="3400" stroke="black" stroke-width="13"/>
        <line x1="0" y1="3950" x2="0" y2="3400" stroke="black" stroke-width="13"/>
        <line x1="10000" y1="3500" x2="6000" y2="3500" stroke="black" stroke-width="13"/>
        <line x1="10040" y1="3540" x2="9960" y2="3460" stroke="black" stroke-width="13"/>
        <line x1="6040" y1="3540" x2="5960" y2="3460" stroke="black" stroke-width="13"/>
        <g transform="translate(8000,3440) scale(1,-1)">
          <text x="0" y="0" font-family="Arial, sans-serif" font-size="120" text-anchor="middle" dominant-baseline="central" fill="black">4</text>
        </g>
        <line x1="6000" y1="3500" x2="5100" y2="3500" stroke="black" stroke-width="13"/>
        <line x1="6040" y1="3540" x2="5960" y2="3460" stroke="black" stroke-width="13"/>
        <line x1="5140" y1="3540" x2="5060" y2="3460" stroke="black" stroke-width="13"/>
        <g transform="translate(5550,3440) scale(1,-1)">
          <text x="0" y="0" font-family="Arial, sans-serif" font-size="120" text-anchor="middle" dominant-baseline="central" fill="black">0.9</text>
        </g>
        <line x1="5100" y1="3500" x2="0" y2="3500" stroke="black" stroke-width="13"/>
        <line x1="5140" y1="3540" x2="5060" y2="3460" stroke="black" stroke-width="13"/>
        <line x1="40" y1="3540" x2="-40" y2="3460" stroke="black" stroke-width="13"/>
        <g transform="translate(2550,3440) scale(1,-1)">
          <text x="0" y="0" font-family="Arial, sans-serif" font-size="120" text-anchor="middle" dominant-baseline="central" fill="black">5.1</text>
        </g>
        <line x1="50" y1="4000" x2="600" y2="4000" stroke="black" stroke-width="13"/>
        <line x1="50" y1="3000" x2="600" y2="3000" stroke="black" stroke-width="13"/>
        <line x1="50" y1="1800" x2="600" y2="1800" stroke="black" stroke-width="13"/>
        <line x1="50" y1="0" x2="600" y2="0" stroke="black" stroke-width="13"/>
        <line x1="500" y1="4000" x2="500" y2="3000" stroke="black" stroke-width="13"/>
        <line x1="460" y1="4040" x2="540" y2="3960" stroke="black" stroke-width="13"/>
        <line x1="460" y1="3040" x2="540" y2="2960" stroke="black" stroke-width="13"/>
        <g transform="translate(560,3500) scale(1,-1)">
          <text x="0" y="0" font-family="Arial, sans-serif" font-size="120" text-anchor="middle" dominant-baseline="central" fill="black">1</text>
        </g>
        <line x1="500" y1="3000" x2="500" y2="1800" stroke="black" stroke-width="13"/>
        <line x1="460" y1="3040" x2="540" y2="2960" stroke="black" stroke-width="13"/>
        <line x1="460" y1="1840" x2="540" y2="1760" stroke="black" stroke-width="13"/>
        <g transform="translate(560,2400) scale(1,-1)">
          <text x="0" y="0" font-family="Arial, sans-serif" font-size="120" text-anchor="middle" dominant-baseline="central" fill="black">1.2</text>
        </g>
        <line x1="500" y1="1800" x2="500" y2="0" stroke="black" stroke-width="13"/>
        <line x1="460" y1="1840" x2="540" y2="1760" stroke="black" stroke-width="13"/>
        <line x1="460" y1="40" x2="540" y2="-40" stroke="black" stroke-width="13"/>
        <g transform="translate(560,900) scale(1,-1)">
          <text x="0" y="0" font-family="Arial, sans-serif" font-size="120" text-anchor="middle" dominant-baseline="central" fill="black">1.8</text>
        </g>
        <line x1="9500" y1="4000" x2="9500" y2="5200" stroke="black" stroke-width="13"/>
        <line x1="9950" y1="4000" x2="9400" y2="4000" stroke="black" stroke-width="13"/>
        <line x1="9950" y1="5200" x2="9400" y2="5200" stroke="black" stroke-width="13"/>
        <line x1="9540" y1="3960" x2="9460" y2="4040" stroke="black" stroke-width="13"/>
        <line x1="9540" y1="5160" x2="9460" y2="5240" stroke="black" stroke-width="13"/>
        <g transform="translate(9440,4600) scale(1,-1)">
          <text x="0" y="0" font-family="Arial, sans-serif" font-size="120" text-anchor="middle" dominant-baseline="central" fill="black">1.2</text>
        </g>
        <line x1="10000" y1="5150" x2="10000" y2="4600" stroke="black" stroke-width="13"/>
        <line x1="9200" y1="5150" x2="9200" y2="4600" stroke="black" stroke-width="13"/>
        <line x1="7700" y1="5150" x2="7700" y2="4600" stroke="black" stroke-width="13"/>
        <line x1="6500" y1="5150" x2="6500" y2="4600" stroke="black" stroke-width="13"/>
        <line x1="10000" y1="4700" x2="9200" y2="4700" stroke="black" stroke-width="13"/>
        <line x1="10040" y1="4740" x2="9960" y2="4660" stroke="black" stroke-width="13"/>
        <line x1="9240" y1="4740" x2="9160" y2="4660" stroke="black" stroke-width="13"/>
        <g transform="translate(9600,4640) scale(1,-1)">
          <text x="0" y="0" font-family="Arial, sans-serif" font-size="120" text-anchor="middle" dominant-baseline="central" fill="black">0.8</text>
        </g>
        <line x1="9200" y1="4700" x2="7700" y2="4700" stroke="black" stroke-width="13"/>
        <line x1="9240" y1="4740" x2="9160" y2="4660" stroke="black" stroke-width="13"/>
        <line x1="7740" y1="4740" x2="7660" y2="4660" stroke="black" stroke-width="13"/>
        <g transform="translate(8450,4640) scale(1,-1)">
          <text x="0" y="0" font-family="Arial, sans-serif" font-size="120" text-anchor="middle" dominant-baseline="central" fill="black">1.5</text>
        </g>
        <line x1="7700" y1="4700" x2="6500" y2="4700" stroke="black" stroke-width="13"/>
        <line x1="7740" y1="4740" x2="7660" y2="4660" stroke="black" stroke-width="13"/>
        <line x1="6540" y1="4740" x2="6460" y2="4660" stroke="black" stroke-width="13"/>
        <g transform="translate(7100,4640) scale(1,-1)">
          <text x="0" y="0" font-family="Arial, sans-serif" font-size="120" text-anchor="middle" dominant-baseline="central" fill="black">1.2</text>
        </g>
        <line x1="6500" y1="5150" x2="6500" y2="4600" stroke="black" stroke-width="13"/>
        <line x1="5800" y1="5150" x2="5800" y2="4600" stroke="black" stroke-width="13"/>
        <line x1="5100" y1="5150" x2="5100" y2="4600" stroke="black" stroke-width="13"/>
        <line x1="4000" y1="5150" x2="4000" y2="4600" stroke="black" stroke-width="13"/>
        <line x1="6500" y1="4700" x2="5800" y2="4700" stroke="black" stroke-width="13"/>
        <line x1="6540" y1="4740" x2="6460" y2="4660" stroke="black" stroke-width="13"/>
        <line x1="5840" y1="4740" x2="5760" y2="4660" stroke="black" stroke-width="13"/>
        <g transform="translate(6150,4640) scale(1,-1)">
          <text x="0" y="0" font-family="Arial, sans-serif" font-size="120" text-anchor="middle" dominant-baseline="central" fill="black">0.7</text>
        </g>
        <line x1="5800" y1="4700" x2="5100" y2="4700" stroke="black" stroke-width="13"/>
        <line x1="5840" y1="4740" x2="5760" y2="4660" stroke="black" stroke-width="13"/>
        <line x1="5140" y1="4740" x2="5060" y2="4660" stroke="black" stroke-width="13"/>
        <g transform="translate(5450,4640) scale(1,-1)">
          <text x="0" y="0" font-family="Arial, sans-serif" font-size="120" text-anchor="middle" dominant-baseline="central" fill="black">0.7</text>
        </g>
        <line x1="5100" y1="4700" x2="4000" y2="4700" stroke="black" stroke-width="13"/>
        <line x1="5140" y1="4740" x2="5060" y2="4660" stroke="black" stroke-width="13"/>
        <line x1="4040" y1="4740" x2="3960" y2="4660" stroke="black" stroke-width="13"/>
        <g transform="translate(4550,4640) scale(1,-1)">
          <text x="0" y="0" font-family="Arial, sans-serif" font-size="120" text-anchor="middle" dominant-baseline="central" fill="black">1.1</text>
        </g>
        <line x1="4000" y1="5150" x2="4000" y2="4600" stroke="black" stroke-width="13"/>
        <line x1="2800" y1="5150" x2="2800" y2="4600" stroke="black" stroke-width="13"/>
        <line x1="2000" y1="5150" x2="2000" y2="4600" stroke="black" stroke-width="13"/>
        <line x1="0" y1="5150" x2="0" y2="4600" stroke="black" stroke-width="13"/>
        <line x1="4000" y1="4700" x2="2800" y2="4700" stroke="black" stroke-width="13"/>
        <line x1="4040" y1="4740" x2="3960" y2="4660" stroke="black" stroke-width="13"/>
        <line x1="2840" y1="4740" x2="2760" y2="4660" stroke="black" stroke-width="13"/>
        <g transform="translate(3400,4640) scale(1,-1)">
          <text x="0" y="0" font-family="Arial, sans-serif" font-size="120" text-anchor="middle" dominant-baseline="central" fill="black">1.2</text>
        </g>
        <line x1="2800" y1="4700" x2="2000" y2="4700" stroke="black" stroke-width="13"/>
        <line x1="2840" y1="4740" x2="2760" y2="4660" stroke="black" stroke-width="13"/>
        <line x1="2040" y1="4740" x2="1960" y2="4660" stroke="black" stroke-width="13"/>
        <g transform="translate(2400,4640) scale(1,-1)">
          <text x="0" y="0" font-family="Arial, sans-serif" font-size="120" text-anchor="middle" dominant-baseline="central" fill="black">0.8</text>
        </g>
        <line x1="2000" y1="4700" x2="0" y2="4700" stroke="black" stroke-width="13"/>
        <line x1="2040" y1="4740" x2="1960" y2="4660" stroke="black" stroke-width="13"/>
        <line x1="40" y1="4740" x2="-40" y2="4660" stroke="black" stroke-width="13"/>
        <g transform="translate(1000,4640) scale(1,-1)">
          <text x="0" y="0" font-family="Arial, sans-serif" font-size="120" text-anchor="middle" dominant-baseline="central" fill="black">2</text>
        </g>
        <line x1="50" y1="5200" x2="600" y2="5200" stroke="black" stroke-width="13"/>
        <line x1="50" y1="5000" x2="600" y2="5000" stroke="black" stroke-width="13"/>
        <line x1="50" y1="4100" x2="600" y2="4100" stroke="black" stroke-width="13"/>
        <line x1="50" y1="4000" x2="600" y2="4000" stroke="black" stroke-width="13"/>
        <line x1="500" y1="5200" x2="500" y2="5000" stroke="black" stroke-width="13"/>
        <line x1="460" y1="5240" x2="540" y2="5160" stroke="black" stroke-width="13"/>
        <line x1="460" y1="5040" x2="540" y2="4960" stroke="black" stroke-width="13"/>
        <g transform="translate(560,5100) scale(1,-1)">
          <text x="0" y="0" font-family="Arial, sans-serif" font-size="120" text-anchor="middle" dominant-baseline="central" fill="black">0.2</text>
        </g>
        <line x1="500" y1="5000" x2="500" y2="4100" stroke="black" stroke-width="13"/>
        <line x1="460" y1="5040" x2="540" y2="4960" stroke="black" stroke-width="13"/>
        <line x1="460" y1="4140" x2="540" y2="4060" stroke="black" stroke-width="13"/>
        <g transform="translate(560,4550) scale(1,-1)">
          <text x="0" y="0" font-family="Arial, sans-serif" font-size="120" text-anchor="middle" dominant-baseline="central" fill="black">0.9</text>
        </g>
        <line x1="500" y1="4100" x2="500" y2="4000" stroke="black" stroke-width="13"/>
        <line x1="460" y1="4140" x2="540" y2="4060" stroke="black" stroke-width="13"/>
        <line x1="460" y1="4040" x2="540" y2="3960" stroke="black" stroke-width="13"/>
        <g transform="translate(560,4050) scale(1,-1)">
          <text x="0" y="0" font-family="Arial, sans-serif" font-size="120" text-anchor="middle" dominant-baseline="central" fill="black">0.1</text>
        </g>
        <line x1="3500" y1="5200" x2="3500" y2="8000" stroke="black" stroke-width="13"/>
        <line x1="3950" y1="5200" x2="3400" y2="5200" stroke="black" stroke-width="13"/>
        <line x1="3950" y1="8000" x2="3400" y2="8000" stroke="black" stroke-width="13"/>
        <line x1="3540" y1="5160" x2="3460" y2="5240" stroke="black" stroke-width="13"/>
        <line x1="3540" y1="7960" x2="3460" y2="8040" stroke="black" stroke-width="13"/>
        <g transform="translate(3440,6600) scale(1,-1)">
          <text x="0" y="0" font-family="Arial, sans-serif" font-size="120" text-anchor="middle" dominant-baseline="central" fill="black">2.8</text>
        </g>
        <line x1="4000" y1="7950" x2="4000" y2="7400" stroke="black" stroke-width="13"/>
        <line x1="3000" y1="7950" x2="3000" y2="7400" stroke="black" stroke-width="13"/>
        <line x1="1500" y1="7950" x2="1500" y2="7400" stroke="black" stroke-width="13"/>
        <line x1="0" y1="7950" x2="0" y2="7400" stroke="black" stroke-width="13"/>
        <line x1="4000" y1="7500" x2="3000" y2="7500" stroke="black" stroke-width="13"/>
        <line x1="4040" y1="7540" x2="3960" y2="7460" stroke="black" stroke-width="13"/>
        <line x1="3040" y1="7540" x2="2960" y2="7460" stroke="black" stroke-width="13"/>
        <g transform="translate(3500,7440) scale(1,-1)">
          <text x="0" y="0" font-family="Arial, sans-serif" font-size="120" text-anchor="middle" dominant-baseline="central" fill="black">1</text>
        </g>
        <line x1="3000" y1="7500" x2="1500" y2="7500" stroke="black" stroke-width="13"/>
        <line x1="3040" y1="7540" x2="2960" y2="7460" stroke="black" stroke-width="13"/>
        <line x1="1540" y1="7540" x2="1460" y2="7460" stroke="black" stroke-width="13"/>
        <g transform="translate(2250,7440) scale(1,-1)">
          <text x="0" y="0" font-family="Arial, sans-serif" font-size="120" text-anchor="middle" dominant-baseline="central" fill="black">1.5</text>
        </g>
        <line x1="1500" y1="7500" x2="0" y2="7500" stroke="black" stroke-width="13"/>
        <line x1="1540" y1="7540" x2="1460" y2="7460" stroke="black" stroke-width="13"/>
        <line x1="40" y1="7540" x2="-40" y2="7460" stroke="black" stroke-width="13"/>
        <g transform="translate(750,7440) scale(1,-1)">
          <text x="0" y="0" font-family="Arial, sans-serif" font-size="120" text-anchor="middle" dominant-baseline="central" fill="black">1.5</text>
        </g>
        <line x1="500" y1="8000" x2="500" y2="5200" stroke="black" stroke-width="13"/>
        <line x1="50" y1="8000" x2="600" y2="8000" stroke="black" stroke-width="13"/>
        <line x1="50" y1="5200" x2="600" y2="5200" stroke="black" stroke-width="13"/>
        <line x1="460" y1="8040" x2="540" y2="7960" stroke="black" stroke-width="13"/>
        <line x1="460" y1="5240" x2="540" y2="5160" stroke="black" stroke-width="13"/>
        <g transform="translate(560,6600) scale(1,-1)">
          <text x="0" y="0" font-family="Arial, sans-serif" font-size="120" text-anchor="middle" dominant-baseline="central" fill="black">2.8</text>
        </g>
        <line x1="6000" y1="5200" x2="6000" y2="8000" stroke="black" stroke-width="13"/>
        <line x1="6450" y1="5200" x2="5900" y2="5200" stroke="black" stroke-width="13"/>
        <line x1="6450" y1="8000" x2="5900" y2="8000" stroke="black" stroke-width="13"/>
        <line x1="6040" y1="5160" x2="5960" y2="5240" stroke="black" stroke-width="13"/>
        <line x1="6040" y1="7960" x2="5960" y2="8040" stroke="black" stroke-width="13"/>
        <g transform="translate(5940,6600) scale(1,-1)">
          <text x="0" y="0" font-family="Arial, sans-serif" font-size="120" text-anchor="middle" dominant-baseline="central" fill="black">2.8</text>
        </g>
        <line x1="6500" y1="7950" x2="6500" y2="7400" stroke="black" stroke-width="13"/>
        <line x1="6000" y1="7950" x2="6000" y2="7400" stroke="black" stroke-width="13"/>
        <line x1="5200" y1="7950" x2="5200" y2="7400" stroke="black" stroke-width="13"/>
        <line x1="4000" y1="7950" x2="4000" y2="7400" stroke="black" stroke-width="13"/>
        <line x1="6500" y1="7500" x2="6000" y2="7500" stroke="black" stroke-width="13"/>
        <line x1="6540" y1="7540" x2="6460" y2="7460" stroke="black" stroke-width="13"/>
        <line x1="6040" y1="7540" x2="5960" y2="7460" stroke="black" stroke-width="13"/>
        <g transform="translate(6250,7440) scale(1,-1)">
          <text x="0" y="0" font-family="Arial, sans-serif" font-size="120" text-anchor="middle" dominant-baseline="central" fill="black">0.5</text>
        </g>
        <line x1="6000" y1="7500" x2="5200" y2="7500" stroke="black" stroke-width="13"/>
        <line x1="6040" y1="7540" x2="5960" y2="7460" stroke="black" stroke-width="13"/>
        <line x1="5240" y1="7540" x2="5160" y2="7460" stroke="black" stroke-width="13"/>
        <g transform="translate(5600,7440) scale(1,-1)">
          <text x="0" y="0" font-family="Arial, sans-serif" font-size="120" text-anchor="middle" dominant-baseline="central" fill="black">0.8</text>
        </g>
        <line x1="5200" y1="7500" x2="4000" y2="7500" stroke="black" stroke-width="13"/>
        <line x1="5240" y1="7540" x2="5160" y2="7460" stroke="black" stroke-width="13"/>
        <line x1="4040" y1="7540" x2="3960" y2="7460" stroke="black" stroke-width="13"/>
        <g transform="translate(4600,7440) scale(1,-1)">
          <text x="0" y="0" font-family="Arial, sans-serif" font-size="120" text-anchor="middle" dominant-baseline="central" fill="black">1.2</text>
        </g>
        <line x1="9500" y1="5200" x2="9500" y2="8000" stroke="black" stroke-width="13"/>
        <line x1="9950" y1="5200" x2="9400" y2="5200" stroke="black" stroke-width="13"/>
        <line x1="9950" y1="8000" x2="9400" y2="8000" stroke="black" stroke-width="13"/>
        <line x1="9540" y1="5160" x2="9460" y2="5240" stroke="black" stroke-width="13"/>
        <line x1="9540" y1="7960" x2="9460" y2="8040" stroke="black" stroke-width="13"/>
        <g transform="translate(9440,6600) scale(1,-1)">
          <text x="0" y="0" font-family="Arial, sans-serif" font-size="120" text-anchor="middle" dominant-baseline="central" fill="black">2.8</text>
        </g>
        <line x1="10000" y1="7950" x2="10000" y2="7400" stroke="black" stroke-width="13"/>
        <line x1="9500" y1="7950" x2="9500" y2="7400" stroke="black" stroke-width="13"/>
        <line x1="8300" y1="7950" x2="8300" y2="7400" stroke="black" stroke-width="13"/>
        <line x1="6500" y1="7950" x2="6500" y2="7400" stroke="black" stroke-width="13"/>
        <line x1="10000" y1="7500" x2="9500" y2="7500" stroke="black" stroke-width="13"/>
        <line x1="10040" y1="7540" x2="9960" y2="7460" stroke="black" stroke-width="13"/>
        <line x1="9540" y1="7540" x2="9460" y2="7460" stroke="black" stroke-width="13"/>
        <g transform="translate(9750,7440) scale(1,-1)">
          <text x="0" y="0" font-family="Arial, sans-serif" font-size="120" text-anchor="middle" dominant-baseline="central" fill="black">0.5</text>
        </g>
        <line x1="9500" y1="7500" x2="8300" y2="7500" stroke="black" stroke-width="13"/>
        <line x1="9540" y1="7540" x2="9460" y2="7460" stroke="black" stroke-width="13"/>
        <line x1="8340" y1="7540" x2="8260" y2="7460" stroke="black" stroke-width="13"/>
        <g transform="translate(8900,7440) scale(1,-1)">
          <text x="0" y="0" font-family="Arial, sans-serif" font-size="120" text-anchor="middle" dominant-baseline="central" fill="black">1.2</text>
        </g>
        <line x1="8300" y1="7500" x2="6500" y2="7500" stroke="black" stroke-width="13"/>
        <line x1="8340" y1="7540" x2="8260" y2="7460" stroke="black" stroke-width="13"/>
        <line x1="6540" y1="7540" x2="6460" y2="7460" stroke="black" stroke-width="13"/>
        <g transform="translate(7400,7440) scale(1,-1)">
          <text x="0" y="0" font-family="Arial, sans-serif" font-size="120" text-anchor="middle" dominant-baseline="central" fill="black">1.8</text>
        </g>
      </g>
    </g>
  </g>
</svg>